<svg version="1.1" xmlns="http://www.w3.org/2000/svg" viewBox="0 0 876.1015625 1172.08984375" width="876.1015625" height="1172.08984375">
  <!-- svg-source:excalidraw -->
  
  <defs>
    <style>
      @font-face {
        font-family: "Virgil";
        src: url("https://excalidraw.com/Virgil.woff2");
      }
      @font-face {
        font-family: "Cascadia";
        src: url("https://excalidraw.com/Cascadia.woff2");
      }
    </style>
  </defs>
  <g stroke-linecap="round"><g transform="translate(222.578125 499.25781249999994) rotate(0 0.84765625 35.1796875)"><path d="M0 0 C0.28 11.73, 1.41 58.63, 1.7 70.36 M0 0 C0.28 11.73, 1.41 58.63, 1.7 70.36" stroke="#000000" stroke-width="1" fill="none"></path></g></g><g stroke-linecap="round"><g transform="translate(319.703125 293.1328125) rotate(0 3.19140625 276.76171875)"><path d="M0 0 C1.06 92.25, 5.32 461.27, 6.38 553.52 M0 0 C1.06 92.25, 5.32 461.27, 6.38 553.52" stroke="#000000" stroke-width="1" fill="none"></path></g></g><g stroke-linecap="round"><g transform="translate(497.796875 73.1875) rotate(0 3.3828125 542.01953125)"><path d="M0 0 C1.13 180.67, 5.64 903.37, 6.77 1084.04 M0 0 C1.13 180.67, 5.64 903.37, 6.77 1084.04" stroke="#000000" stroke-width="1" fill="none"></path></g></g><g transform="translate(463.4296875 10) rotate(0 35 24)"><text x="0" y="19" font-family="Cascadia, Segoe UI Emoji" font-size="20px" fill="#000000" text-anchor="start" style="white-space: pre;" direction="ltr">main</text><text x="0" y="43" font-family="Cascadia, Segoe UI Emoji" font-size="20px" fill="#000000" text-anchor="start" style="white-space: pre;" direction="ltr">branch</text></g><g stroke-linecap="round" transform="translate(469.3671875 65.0546875) rotate(0 29.83203125 13.58203125)"><path d="M29.83 0 C35.9 -0.17, 44.11 1.31, 49.01 3.18 C53.9 5.05, 58.1 8.36, 59.21 11.22 C60.32 14.09, 58.86 17.85, 55.67 20.37 C52.47 22.89, 46.04 25.35, 40.04 26.34 C34.03 27.34, 25.64 27.34, 19.63 26.34 C13.62 25.35, 7.19 22.89, 4 20.37 C0.8 17.85, -0.66 14.09, 0.45 11.22 C1.56 8.36, 5.76 5.05, 10.66 3.18 C15.55 1.31, 26.64 0.48, 29.83 0 C33.03 -0.48, 29.83 0.05, 29.83 0.27 M29.83 0 C35.9 -0.17, 44.11 1.31, 49.01 3.18 C53.9 5.05, 58.1 8.36, 59.21 11.22 C60.32 14.09, 58.86 17.85, 55.67 20.37 C52.47 22.89, 46.04 25.35, 40.04 26.34 C34.03 27.34, 25.64 27.34, 19.63 26.34 C13.62 25.35, 7.19 22.89, 4 20.37 C0.8 17.85, -0.66 14.09, 0.45 11.22 C1.56 8.36, 5.76 5.05, 10.66 3.18 C15.55 1.31, 26.64 0.48, 29.83 0 C33.03 -0.48, 29.83 0.05, 29.83 0.27" stroke="none" stroke-width="0" fill="#868e96"></path><path d="M29.83 0 C35.9 -0.17, 44.11 1.31, 49.01 3.18 C53.9 5.05, 58.1 8.36, 59.21 11.22 C60.32 14.09, 58.86 17.85, 55.67 20.37 C52.47 22.89, 46.04 25.35, 40.04 26.34 C34.03 27.34, 25.64 27.34, 19.63 26.34 C13.62 25.35, 7.19 22.89, 4 20.37 C0.8 17.85, -0.66 14.09, 0.45 11.22 C1.56 8.36, 5.76 5.05, 10.66 3.18 C15.55 1.31, 26.64 0.48, 29.83 0 C33.03 -0.48, 29.83 0.05, 29.83 0.27 M29.83 0 C35.9 -0.17, 44.11 1.31, 49.01 3.18 C53.9 5.05, 58.1 8.36, 59.21 11.22 C60.32 14.09, 58.86 17.85, 55.67 20.37 C52.47 22.89, 46.04 25.35, 40.04 26.34 C34.03 27.34, 25.64 27.34, 19.63 26.34 C13.62 25.35, 7.19 22.89, 4 20.37 C0.8 17.85, -0.66 14.09, 0.45 11.22 C1.56 8.36, 5.76 5.05, 10.66 3.18 C15.55 1.31, 26.64 0.48, 29.83 0 C33.03 -0.48, 29.83 0.05, 29.83 0.27" stroke="#000000" stroke-width="1" fill="none"></path></g><g stroke-linecap="round" transform="translate(466.44140625 196.92578125) rotate(0 29.83203125 13.58203125)"><path d="M29.83 0 C35.9 -0.17, 44.11 1.31, 49.01 3.18 C53.9 5.05, 58.1 8.36, 59.21 11.22 C60.32 14.09, 58.86 17.85, 55.67 20.37 C52.47 22.89, 46.04 25.35, 40.04 26.34 C34.03 27.34, 25.64 27.34, 19.63 26.34 C13.62 25.35, 7.19 22.89, 4 20.37 C0.8 17.85, -0.66 14.09, 0.45 11.22 C1.56 8.36, 5.76 5.05, 10.66 3.18 C15.55 1.31, 26.64 0.48, 29.83 0 C33.03 -0.48, 29.83 0.05, 29.83 0.27 M29.83 0 C35.9 -0.17, 44.11 1.31, 49.01 3.18 C53.9 5.05, 58.1 8.36, 59.21 11.22 C60.32 14.09, 58.86 17.85, 55.67 20.37 C52.47 22.89, 46.04 25.35, 40.04 26.34 C34.03 27.34, 25.64 27.34, 19.63 26.34 C13.62 25.35, 7.19 22.89, 4 20.37 C0.8 17.85, -0.66 14.09, 0.45 11.22 C1.56 8.36, 5.76 5.05, 10.66 3.18 C15.55 1.31, 26.64 0.48, 29.83 0 C33.03 -0.48, 29.83 0.05, 29.83 0.27" stroke="none" stroke-width="0" fill="#868e96"></path><path d="M29.83 0 C35.9 -0.17, 44.11 1.31, 49.01 3.18 C53.9 5.05, 58.1 8.36, 59.21 11.22 C60.32 14.09, 58.86 17.85, 55.67 20.37 C52.47 22.89, 46.04 25.35, 40.04 26.34 C34.03 27.34, 25.64 27.34, 19.63 26.34 C13.62 25.35, 7.19 22.89, 4 20.37 C0.8 17.85, -0.66 14.09, 0.45 11.22 C1.56 8.36, 5.76 5.05, 10.66 3.18 C15.55 1.31, 26.64 0.48, 29.83 0 C33.03 -0.48, 29.83 0.05, 29.83 0.27 M29.83 0 C35.9 -0.17, 44.11 1.31, 49.01 3.18 C53.9 5.05, 58.1 8.36, 59.21 11.22 C60.32 14.09, 58.86 17.85, 55.67 20.37 C52.47 22.89, 46.04 25.35, 40.04 26.34 C34.03 27.34, 25.64 27.34, 19.63 26.34 C13.62 25.35, 7.19 22.89, 4 20.37 C0.8 17.85, -0.66 14.09, 0.45 11.22 C1.56 8.36, 5.76 5.05, 10.66 3.18 C15.55 1.31, 26.64 0.48, 29.83 0 C33.03 -0.48, 29.83 0.05, 29.83 0.27" stroke="#000000" stroke-width="1" fill="none"></path></g><g stroke-linecap="round" transform="translate(294.44140625 270.92578125) rotate(0 29.83203125 13.58203125)"><path d="M29.83 0 C35.9 -0.17, 44.11 1.31, 49.01 3.18 C53.9 5.05, 58.1 8.36, 59.21 11.22 C60.32 14.09, 58.86 17.85, 55.67 20.37 C52.47 22.89, 46.04 25.35, 40.04 26.34 C34.03 27.34, 25.64 27.34, 19.63 26.34 C13.62 25.35, 7.19 22.89, 4 20.37 C0.8 17.85, -0.66 14.09, 0.45 11.22 C1.56 8.36, 5.76 5.05, 10.66 3.18 C15.55 1.31, 26.64 0.48, 29.83 0 C33.03 -0.48, 29.83 0.05, 29.83 0.27 M29.83 0 C35.9 -0.17, 44.11 1.31, 49.01 3.18 C53.9 5.05, 58.1 8.36, 59.21 11.22 C60.32 14.09, 58.86 17.85, 55.67 20.37 C52.47 22.89, 46.04 25.35, 40.04 26.34 C34.03 27.34, 25.64 27.34, 19.63 26.34 C13.62 25.35, 7.19 22.89, 4 20.37 C0.8 17.85, -0.66 14.09, 0.45 11.22 C1.56 8.36, 5.76 5.05, 10.66 3.18 C15.55 1.31, 26.64 0.48, 29.83 0 C33.03 -0.48, 29.83 0.05, 29.83 0.27" stroke="none" stroke-width="0" fill="#868e96"></path><path d="M29.83 0 C35.9 -0.17, 44.11 1.31, 49.01 3.18 C53.9 5.05, 58.1 8.36, 59.21 11.22 C60.32 14.09, 58.86 17.85, 55.67 20.37 C52.47 22.89, 46.04 25.35, 40.04 26.34 C34.03 27.34, 25.64 27.34, 19.63 26.34 C13.62 25.35, 7.19 22.89, 4 20.37 C0.8 17.85, -0.66 14.09, 0.45 11.22 C1.56 8.36, 5.76 5.05, 10.66 3.18 C15.55 1.31, 26.64 0.48, 29.83 0 C33.03 -0.48, 29.83 0.05, 29.83 0.27 M29.83 0 C35.9 -0.17, 44.11 1.31, 49.01 3.18 C53.9 5.05, 58.1 8.36, 59.21 11.22 C60.32 14.09, 58.86 17.85, 55.67 20.37 C52.47 22.89, 46.04 25.35, 40.04 26.34 C34.03 27.34, 25.64 27.34, 19.63 26.34 C13.62 25.35, 7.19 22.89, 4 20.37 C0.8 17.85, -0.66 14.09, 0.45 11.22 C1.56 8.36, 5.76 5.05, 10.66 3.18 C15.55 1.31, 26.64 0.48, 29.83 0 C33.03 -0.48, 29.83 0.05, 29.83 0.27" stroke="#000000" stroke-width="1" fill="none"></path></g><g stroke-linecap="round" transform="translate(292.75390625 426.92578124999994) rotate(0 29.83203125 13.58203125)"><path d="M29.83 0 C35.9 -0.17, 44.11 1.31, 49.01 3.18 C53.9 5.05, 58.1 8.36, 59.21 11.22 C60.32 14.09, 58.86 17.85, 55.67 20.37 C52.47 22.89, 46.04 25.35, 40.04 26.34 C34.03 27.34, 25.64 27.34, 19.63 26.34 C13.62 25.35, 7.19 22.89, 4 20.37 C0.8 17.85, -0.66 14.09, 0.45 11.22 C1.56 8.36, 5.76 5.05, 10.66 3.18 C15.55 1.31, 26.64 0.48, 29.83 0 C33.03 -0.48, 29.83 0.05, 29.83 0.27 M29.83 0 C35.9 -0.17, 44.11 1.31, 49.01 3.18 C53.9 5.05, 58.1 8.36, 59.21 11.22 C60.32 14.09, 58.86 17.85, 55.67 20.37 C52.47 22.89, 46.04 25.35, 40.04 26.34 C34.03 27.34, 25.64 27.34, 19.63 26.34 C13.62 25.35, 7.19 22.89, 4 20.37 C0.8 17.85, -0.66 14.09, 0.45 11.22 C1.56 8.36, 5.76 5.05, 10.66 3.18 C15.55 1.31, 26.64 0.48, 29.83 0 C33.03 -0.48, 29.83 0.05, 29.83 0.27" stroke="none" stroke-width="0" fill="#868e96"></path><path d="M29.83 0 C35.9 -0.17, 44.11 1.31, 49.01 3.18 C53.9 5.05, 58.1 8.36, 59.21 11.22 C60.32 14.09, 58.86 17.85, 55.67 20.37 C52.47 22.89, 46.04 25.35, 40.04 26.34 C34.03 27.34, 25.64 27.34, 19.63 26.34 C13.62 25.35, 7.19 22.89, 4 20.37 C0.8 17.85, -0.66 14.09, 0.45 11.22 C1.56 8.36, 5.76 5.05, 10.66 3.18 C15.55 1.31, 26.64 0.48, 29.83 0 C33.03 -0.48, 29.83 0.05, 29.83 0.27 M29.83 0 C35.9 -0.17, 44.11 1.31, 49.01 3.18 C53.9 5.05, 58.1 8.36, 59.21 11.22 C60.32 14.09, 58.86 17.85, 55.67 20.37 C52.47 22.89, 46.04 25.35, 40.04 26.34 C34.03 27.34, 25.64 27.34, 19.63 26.34 C13.62 25.35, 7.19 22.89, 4 20.37 C0.8 17.85, -0.66 14.09, 0.45 11.22 C1.56 8.36, 5.76 5.05, 10.66 3.18 C15.55 1.31, 26.64 0.48, 29.83 0 C33.03 -0.48, 29.83 0.05, 29.83 0.27" stroke="#000000" stroke-width="1" fill="none"></path></g><g stroke-linecap="round" transform="translate(292.44140625 623.83984375) rotate(0 29.83203125 13.58203125)"><path d="M29.83 0 C35.9 -0.17, 44.11 1.31, 49.01 3.18 C53.9 5.05, 58.1 8.36, 59.21 11.22 C60.32 14.09, 58.86 17.85, 55.67 20.37 C52.47 22.89, 46.04 25.35, 40.04 26.34 C34.03 27.34, 25.64 27.34, 19.63 26.34 C13.62 25.35, 7.19 22.89, 4 20.37 C0.8 17.85, -0.66 14.09, 0.45 11.22 C1.56 8.36, 5.76 5.05, 10.66 3.18 C15.55 1.31, 26.64 0.48, 29.83 0 C33.03 -0.48, 29.83 0.05, 29.83 0.27 M29.83 0 C35.9 -0.17, 44.11 1.31, 49.01 3.18 C53.9 5.05, 58.1 8.36, 59.21 11.22 C60.32 14.09, 58.86 17.85, 55.67 20.37 C52.47 22.89, 46.04 25.35, 40.04 26.34 C34.03 27.34, 25.64 27.34, 19.63 26.34 C13.62 25.35, 7.19 22.89, 4 20.37 C0.8 17.85, -0.66 14.09, 0.45 11.22 C1.56 8.36, 5.76 5.05, 10.66 3.18 C15.55 1.31, 26.64 0.48, 29.83 0 C33.03 -0.48, 29.83 0.05, 29.83 0.27" stroke="none" stroke-width="0" fill="#868e96"></path><path d="M29.83 0 C35.9 -0.17, 44.11 1.31, 49.01 3.18 C53.9 5.05, 58.1 8.36, 59.21 11.22 C60.32 14.09, 58.86 17.85, 55.67 20.37 C52.47 22.89, 46.04 25.35, 40.04 26.34 C34.03 27.34, 25.64 27.34, 19.63 26.34 C13.62 25.35, 7.19 22.89, 4 20.37 C0.8 17.85, -0.66 14.09, 0.45 11.22 C1.56 8.36, 5.76 5.05, 10.66 3.18 C15.55 1.31, 26.64 0.48, 29.83 0 C33.03 -0.48, 29.83 0.05, 29.83 0.27 M29.83 0 C35.9 -0.17, 44.11 1.31, 49.01 3.18 C53.9 5.05, 58.1 8.36, 59.21 11.22 C60.32 14.09, 58.86 17.85, 55.67 20.37 C52.47 22.89, 46.04 25.35, 40.04 26.34 C34.03 27.34, 25.64 27.34, 19.63 26.34 C13.62 25.35, 7.19 22.89, 4 20.37 C0.8 17.85, -0.66 14.09, 0.45 11.22 C1.56 8.36, 5.76 5.05, 10.66 3.18 C15.55 1.31, 26.64 0.48, 29.83 0 C33.03 -0.48, 29.83 0.05, 29.83 0.27" stroke="#000000" stroke-width="1" fill="none"></path></g><g stroke-linecap="round"><g transform="translate(476.4765625 217.2421875) rotate(0 -63.91015625 28.7734375)"><path d="M0 0 C-21.3 9.59, -106.52 47.96, -127.82 57.55 M0 0 C-21.3 9.59, -106.52 47.96, -127.82 57.55" stroke="#000000" stroke-width="1" fill="none"></path></g></g><g transform="translate(280.7265625 202.140625) rotate(0 64.5 24)"><text x="0" y="19" font-family="Cascadia, Segoe UI Emoji" font-size="20px" fill="#000000" text-anchor="start" style="white-space: pre;" direction="ltr">user story </text><text x="0" y="43" font-family="Cascadia, Segoe UI Emoji" font-size="20px" fill="#000000" text-anchor="start" style="white-space: pre;" direction="ltr">branch</text></g><g stroke-linecap="round" transform="translate(295.55859375 836.44140625) rotate(0 29.83203125 13.58203125)"><path d="M29.83 0 C35.9 -0.17, 44.11 1.31, 49.01 3.18 C53.9 5.05, 58.1 8.36, 59.21 11.22 C60.32 14.09, 58.86 17.85, 55.67 20.37 C52.47 22.89, 46.04 25.35, 40.04 26.34 C34.03 27.34, 25.64 27.34, 19.63 26.34 C13.62 25.35, 7.19 22.89, 4 20.37 C0.8 17.85, -0.66 14.09, 0.45 11.22 C1.56 8.36, 5.76 5.05, 10.66 3.18 C15.55 1.31, 26.64 0.48, 29.83 0 C33.03 -0.48, 29.83 0.05, 29.83 0.27 M29.83 0 C35.9 -0.17, 44.11 1.31, 49.01 3.18 C53.9 5.05, 58.1 8.36, 59.21 11.22 C60.32 14.09, 58.86 17.85, 55.67 20.37 C52.47 22.89, 46.04 25.35, 40.04 26.34 C34.03 27.34, 25.64 27.34, 19.63 26.34 C13.62 25.35, 7.19 22.89, 4 20.37 C0.8 17.85, -0.66 14.09, 0.45 11.22 C1.56 8.36, 5.76 5.05, 10.66 3.18 C15.55 1.31, 26.64 0.48, 29.83 0 C33.03 -0.48, 29.83 0.05, 29.83 0.27" stroke="none" stroke-width="0" fill="#868e96"></path><path d="M29.83 0 C35.9 -0.17, 44.11 1.31, 49.01 3.18 C53.9 5.05, 58.1 8.36, 59.21 11.22 C60.32 14.09, 58.86 17.85, 55.67 20.37 C52.47 22.89, 46.04 25.35, 40.04 26.34 C34.03 27.34, 25.64 27.34, 19.63 26.34 C13.62 25.35, 7.19 22.89, 4 20.37 C0.8 17.85, -0.66 14.09, 0.45 11.22 C1.56 8.36, 5.76 5.05, 10.66 3.18 C15.55 1.31, 26.64 0.48, 29.83 0 C33.03 -0.48, 29.83 0.05, 29.83 0.27 M29.83 0 C35.9 -0.17, 44.11 1.31, 49.01 3.18 C53.9 5.05, 58.1 8.36, 59.21 11.22 C60.32 14.09, 58.86 17.85, 55.67 20.37 C52.47 22.89, 46.04 25.35, 40.04 26.34 C34.03 27.34, 25.64 27.34, 19.63 26.34 C13.62 25.35, 7.19 22.89, 4 20.37 C0.8 17.85, -0.66 14.09, 0.45 11.22 C1.56 8.36, 5.76 5.05, 10.66 3.18 C15.55 1.31, 26.64 0.48, 29.83 0 C33.03 -0.48, 29.83 0.05, 29.83 0.27" stroke="#000000" stroke-width="1" fill="none"></path></g><g stroke-linecap="round"><g transform="translate(347.734375 862.28125) rotate(0 71.4609375 42.38671875)"><path d="M0 0 C23.82 14.13, 119.1 70.64, 142.92 84.77 M0 0 C23.82 14.13, 119.1 70.64, 142.92 84.77" stroke="#000000" stroke-width="1" fill="none"></path></g></g><g stroke-linecap="round" transform="translate(468.44140625 930.92578125) rotate(0 29.83203125 13.58203125)"><path d="M29.83 0 C35.9 -0.17, 44.11 1.31, 49.01 3.18 C53.9 5.05, 58.1 8.36, 59.21 11.22 C60.32 14.09, 58.86 17.85, 55.67 20.37 C52.47 22.89, 46.04 25.35, 40.04 26.34 C34.03 27.34, 25.64 27.34, 19.63 26.34 C13.62 25.35, 7.19 22.89, 4 20.37 C0.8 17.85, -0.66 14.09, 0.45 11.22 C1.56 8.36, 5.76 5.05, 10.66 3.18 C15.55 1.31, 26.64 0.48, 29.83 0 C33.03 -0.48, 29.83 0.05, 29.83 0.27 M29.83 0 C35.9 -0.17, 44.11 1.31, 49.01 3.18 C53.9 5.05, 58.1 8.36, 59.21 11.22 C60.32 14.09, 58.86 17.85, 55.67 20.37 C52.47 22.89, 46.04 25.35, 40.04 26.34 C34.03 27.34, 25.64 27.34, 19.63 26.34 C13.62 25.35, 7.19 22.89, 4 20.37 C0.8 17.85, -0.66 14.09, 0.45 11.22 C1.56 8.36, 5.76 5.05, 10.66 3.18 C15.55 1.31, 26.64 0.48, 29.83 0 C33.03 -0.48, 29.83 0.05, 29.83 0.27" stroke="none" stroke-width="0" fill="#868e96"></path><path d="M29.83 0 C35.9 -0.17, 44.11 1.31, 49.01 3.18 C53.9 5.05, 58.1 8.36, 59.21 11.22 C60.32 14.09, 58.86 17.85, 55.67 20.37 C52.47 22.89, 46.04 25.35, 40.04 26.34 C34.03 27.34, 25.64 27.34, 19.63 26.34 C13.62 25.35, 7.19 22.89, 4 20.37 C0.8 17.85, -0.66 14.09, 0.45 11.22 C1.56 8.36, 5.76 5.05, 10.66 3.18 C15.55 1.31, 26.64 0.48, 29.83 0 C33.03 -0.48, 29.83 0.05, 29.83 0.27 M29.83 0 C35.9 -0.17, 44.11 1.31, 49.01 3.18 C53.9 5.05, 58.1 8.36, 59.21 11.22 C60.32 14.09, 58.86 17.85, 55.67 20.37 C52.47 22.89, 46.04 25.35, 40.04 26.34 C34.03 27.34, 25.64 27.34, 19.63 26.34 C13.62 25.35, 7.19 22.89, 4 20.37 C0.8 17.85, -0.66 14.09, 0.45 11.22 C1.56 8.36, 5.76 5.05, 10.66 3.18 C15.55 1.31, 26.64 0.48, 29.83 0 C33.03 -0.48, 29.83 0.05, 29.83 0.27" stroke="#000000" stroke-width="1" fill="none"></path></g><g stroke-linecap="round" transform="translate(462.44140625 382.92578124999994) rotate(0 29.83203125 13.58203125)"><path d="M29.83 0 C35.9 -0.17, 44.11 1.31, 49.01 3.18 C53.9 5.05, 58.1 8.36, 59.21 11.22 C60.32 14.09, 58.86 17.85, 55.67 20.37 C52.47 22.89, 46.04 25.35, 40.04 26.34 C34.03 27.34, 25.64 27.34, 19.63 26.34 C13.62 25.35, 7.19 22.89, 4 20.37 C0.8 17.85, -0.66 14.09, 0.45 11.22 C1.56 8.36, 5.76 5.05, 10.66 3.18 C15.55 1.31, 26.64 0.48, 29.83 0 C33.03 -0.48, 29.83 0.05, 29.83 0.27 M29.83 0 C35.9 -0.17, 44.11 1.31, 49.01 3.18 C53.9 5.05, 58.1 8.36, 59.21 11.22 C60.32 14.09, 58.86 17.85, 55.67 20.37 C52.47 22.89, 46.04 25.35, 40.04 26.34 C34.03 27.34, 25.64 27.34, 19.63 26.34 C13.62 25.35, 7.19 22.89, 4 20.37 C0.8 17.85, -0.66 14.09, 0.45 11.22 C1.56 8.36, 5.76 5.05, 10.66 3.18 C15.55 1.31, 26.64 0.48, 29.83 0 C33.03 -0.48, 29.83 0.05, 29.83 0.27" stroke="none" stroke-width="0" fill="#868e96"></path><path d="M29.83 0 C35.9 -0.17, 44.11 1.31, 49.01 3.18 C53.9 5.05, 58.1 8.36, 59.21 11.22 C60.32 14.09, 58.86 17.85, 55.67 20.37 C52.47 22.89, 46.04 25.35, 40.04 26.34 C34.03 27.34, 25.64 27.34, 19.63 26.34 C13.62 25.35, 7.19 22.89, 4 20.37 C0.8 17.85, -0.66 14.09, 0.45 11.22 C1.56 8.36, 5.76 5.05, 10.66 3.18 C15.55 1.31, 26.64 0.48, 29.83 0 C33.03 -0.48, 29.83 0.05, 29.83 0.27 M29.83 0 C35.9 -0.17, 44.11 1.31, 49.01 3.18 C53.9 5.05, 58.1 8.36, 59.21 11.22 C60.32 14.09, 58.86 17.85, 55.67 20.37 C52.47 22.89, 46.04 25.35, 40.04 26.34 C34.03 27.34, 25.64 27.34, 19.63 26.34 C13.62 25.35, 7.19 22.89, 4 20.37 C0.8 17.85, -0.66 14.09, 0.45 11.22 C1.56 8.36, 5.76 5.05, 10.66 3.18 C15.55 1.31, 26.64 0.48, 29.83 0 C33.03 -0.48, 29.83 0.05, 29.83 0.27" stroke="#000000" stroke-width="1" fill="none"></path></g><g stroke-linecap="round" transform="translate(472.44140625 1134.92578125) rotate(0 29.83203125 13.58203125)"><path d="M29.83 0 C35.9 -0.17, 44.11 1.31, 49.01 3.18 C53.9 5.05, 58.1 8.36, 59.21 11.22 C60.32 14.09, 58.86 17.85, 55.67 20.37 C52.47 22.89, 46.04 25.35, 40.04 26.34 C34.03 27.34, 25.64 27.34, 19.63 26.34 C13.62 25.35, 7.19 22.89, 4 20.37 C0.8 17.85, -0.66 14.09, 0.45 11.22 C1.56 8.36, 5.76 5.05, 10.66 3.18 C15.55 1.31, 26.64 0.48, 29.83 0 C33.03 -0.48, 29.83 0.05, 29.83 0.27 M29.83 0 C35.9 -0.17, 44.11 1.31, 49.01 3.18 C53.9 5.05, 58.1 8.36, 59.21 11.22 C60.32 14.09, 58.86 17.85, 55.67 20.37 C52.47 22.89, 46.04 25.35, 40.04 26.34 C34.03 27.34, 25.64 27.34, 19.63 26.34 C13.62 25.35, 7.19 22.89, 4 20.37 C0.8 17.85, -0.66 14.09, 0.45 11.22 C1.56 8.36, 5.76 5.05, 10.66 3.18 C15.55 1.31, 26.64 0.48, 29.83 0 C33.03 -0.48, 29.83 0.05, 29.83 0.27" stroke="none" stroke-width="0" fill="#868e96"></path><path d="M29.83 0 C35.9 -0.17, 44.11 1.31, 49.01 3.18 C53.9 5.05, 58.1 8.36, 59.21 11.22 C60.32 14.09, 58.86 17.85, 55.67 20.37 C52.47 22.89, 46.04 25.35, 40.04 26.34 C34.03 27.34, 25.64 27.34, 19.63 26.34 C13.62 25.35, 7.19 22.89, 4 20.37 C0.8 17.85, -0.66 14.09, 0.45 11.22 C1.56 8.36, 5.76 5.05, 10.66 3.18 C15.55 1.31, 26.64 0.48, 29.83 0 C33.03 -0.48, 29.83 0.05, 29.83 0.27 M29.83 0 C35.9 -0.17, 44.11 1.31, 49.01 3.18 C53.9 5.05, 58.1 8.36, 59.21 11.22 C60.32 14.09, 58.86 17.85, 55.67 20.37 C52.47 22.89, 46.04 25.35, 40.04 26.34 C34.03 27.34, 25.64 27.34, 19.63 26.34 C13.62 25.35, 7.19 22.89, 4 20.37 C0.8 17.85, -0.66 14.09, 0.45 11.22 C1.56 8.36, 5.76 5.05, 10.66 3.18 C15.55 1.31, 26.64 0.48, 29.83 0 C33.03 -0.48, 29.83 0.05, 29.83 0.27" stroke="#000000" stroke-width="1" fill="none"></path></g><g stroke-linecap="round"><g transform="translate(515.359375 400.63281249999994) rotate(0 59.15625 35.703125)"><path d="M0 0 C19.72 11.9, 98.59 59.51, 118.31 71.41 M0 0 C19.72 11.9, 98.59 59.51, 118.31 71.41" stroke="#000000" stroke-width="1" fill="none"></path></g></g><g stroke-linecap="round"><g transform="translate(523.9921875 1149.4921875) rotate(0 66.06640625 -57.6328125)"><path d="M0 0 C22.02 -19.21, 110.11 -96.05, 132.13 -115.27 M0 0 C22.02 -19.21, 110.11 -96.05, 132.13 -115.27" stroke="#000000" stroke-width="1" fill="none"></path></g></g><g transform="translate(634.3046875 356.89843749999994) rotate(0 58.5 36)"><text x="0" y="19" font-family="Cascadia, Segoe UI Emoji" font-size="20px" fill="#000000" text-anchor="start" style="white-space: pre;" direction="ltr">another </text><text x="0" y="43" font-family="Cascadia, Segoe UI Emoji" font-size="20px" fill="#000000" text-anchor="start" style="white-space: pre;" direction="ltr">user story</text><text x="0" y="67" font-family="Cascadia, Segoe UI Emoji" font-size="20px" fill="#000000" text-anchor="start" style="white-space: pre;" direction="ltr">branch</text></g><g stroke-linecap="round"><g transform="translate(648.78515625 483.24999999999994) rotate(0 3.19140625 276.76171875)"><path d="M0 0 C1.06 92.25, 5.32 461.27, 6.38 553.52 M0 0 C1.06 92.25, 5.32 461.27, 6.38 553.52" stroke="#000000" stroke-width="1" fill="none"></path></g></g><g stroke-linecap="round" transform="translate(623.5234375 461.04296874999994) rotate(0 29.83203125 13.58203125)"><path d="M29.83 0 C35.9 -0.17, 44.11 1.31, 49.01 3.18 C53.9 5.05, 58.1 8.36, 59.21 11.22 C60.32 14.09, 58.86 17.85, 55.67 20.37 C52.47 22.89, 46.04 25.35, 40.04 26.34 C34.03 27.34, 25.64 27.34, 19.63 26.34 C13.62 25.35, 7.19 22.89, 4 20.37 C0.8 17.85, -0.66 14.09, 0.45 11.22 C1.56 8.36, 5.76 5.05, 10.66 3.18 C15.55 1.31, 26.64 0.48, 29.83 0 C33.03 -0.48, 29.83 0.05, 29.83 0.27 M29.83 0 C35.9 -0.17, 44.11 1.31, 49.01 3.18 C53.9 5.05, 58.1 8.36, 59.21 11.22 C60.32 14.09, 58.86 17.85, 55.67 20.37 C52.47 22.89, 46.04 25.35, 40.04 26.34 C34.03 27.34, 25.64 27.34, 19.63 26.34 C13.62 25.35, 7.19 22.89, 4 20.37 C0.8 17.85, -0.66 14.09, 0.45 11.22 C1.56 8.36, 5.76 5.05, 10.66 3.18 C15.55 1.31, 26.64 0.48, 29.83 0 C33.03 -0.48, 29.83 0.05, 29.83 0.27" stroke="none" stroke-width="0" fill="#868e96"></path><path d="M29.83 0 C35.9 -0.17, 44.11 1.31, 49.01 3.18 C53.9 5.05, 58.1 8.36, 59.21 11.22 C60.32 14.09, 58.86 17.85, 55.67 20.37 C52.47 22.89, 46.04 25.35, 40.04 26.34 C34.03 27.34, 25.64 27.34, 19.63 26.34 C13.62 25.35, 7.19 22.89, 4 20.37 C0.8 17.85, -0.66 14.09, 0.45 11.22 C1.56 8.36, 5.76 5.05, 10.66 3.18 C15.55 1.31, 26.64 0.48, 29.83 0 C33.03 -0.48, 29.83 0.05, 29.83 0.27 M29.83 0 C35.9 -0.17, 44.11 1.31, 49.01 3.18 C53.9 5.05, 58.1 8.36, 59.21 11.22 C60.32 14.09, 58.86 17.85, 55.67 20.37 C52.47 22.89, 46.04 25.35, 40.04 26.34 C34.03 27.34, 25.64 27.34, 19.63 26.34 C13.62 25.35, 7.19 22.89, 4 20.37 C0.8 17.85, -0.66 14.09, 0.45 11.22 C1.56 8.36, 5.76 5.05, 10.66 3.18 C15.55 1.31, 26.64 0.48, 29.83 0 C33.03 -0.48, 29.83 0.05, 29.83 0.27" stroke="#000000" stroke-width="1" fill="none"></path></g><g stroke-linecap="round" transform="translate(624.640625 1026.55859375) rotate(0 29.83203125 13.58203125)"><path d="M29.83 0 C35.9 -0.17, 44.11 1.31, 49.01 3.18 C53.9 5.05, 58.1 8.36, 59.21 11.22 C60.32 14.09, 58.86 17.85, 55.67 20.37 C52.47 22.89, 46.04 25.35, 40.04 26.34 C34.03 27.34, 25.64 27.34, 19.63 26.34 C13.62 25.35, 7.19 22.89, 4 20.37 C0.8 17.85, -0.66 14.09, 0.45 11.22 C1.56 8.36, 5.76 5.05, 10.66 3.18 C15.55 1.31, 26.64 0.48, 29.83 0 C33.03 -0.48, 29.83 0.05, 29.83 0.27 M29.83 0 C35.9 -0.17, 44.11 1.31, 49.01 3.18 C53.9 5.05, 58.1 8.36, 59.21 11.22 C60.32 14.09, 58.86 17.85, 55.67 20.37 C52.47 22.89, 46.04 25.35, 40.04 26.34 C34.03 27.34, 25.64 27.34, 19.63 26.34 C13.62 25.35, 7.19 22.89, 4 20.37 C0.8 17.85, -0.66 14.09, 0.45 11.22 C1.56 8.36, 5.76 5.05, 10.66 3.18 C15.55 1.31, 26.64 0.48, 29.83 0 C33.03 -0.48, 29.83 0.05, 29.83 0.27" stroke="none" stroke-width="0" fill="#868e96"></path><path d="M29.83 0 C35.9 -0.17, 44.11 1.31, 49.01 3.18 C53.9 5.05, 58.1 8.36, 59.21 11.22 C60.32 14.09, 58.86 17.85, 55.67 20.37 C52.47 22.89, 46.04 25.35, 40.04 26.34 C34.03 27.34, 25.64 27.34, 19.63 26.34 C13.62 25.35, 7.19 22.89, 4 20.37 C0.8 17.85, -0.66 14.09, 0.45 11.22 C1.56 8.36, 5.76 5.05, 10.66 3.18 C15.55 1.31, 26.64 0.48, 29.83 0 C33.03 -0.48, 29.83 0.05, 29.83 0.27 M29.83 0 C35.9 -0.17, 44.11 1.31, 49.01 3.18 C53.9 5.05, 58.1 8.36, 59.21 11.22 C60.32 14.09, 58.86 17.85, 55.67 20.37 C52.47 22.89, 46.04 25.35, 40.04 26.34 C34.03 27.34, 25.64 27.34, 19.63 26.34 C13.62 25.35, 7.19 22.89, 4 20.37 C0.8 17.85, -0.66 14.09, 0.45 11.22 C1.56 8.36, 5.76 5.05, 10.66 3.18 C15.55 1.31, 26.64 0.48, 29.83 0 C33.03 -0.48, 29.83 0.05, 29.83 0.27" stroke="#000000" stroke-width="1" fill="none"></path></g><g stroke-linecap="round"><g transform="translate(295.4453125 447.11718749999994) rotate(0 -33.92578125 21.8984375)"><path d="M0 0 C-11.31 7.3, -56.54 36.5, -67.85 43.8 M0 0 C-11.31 7.3, -56.54 36.5, -67.85 43.8" stroke="#000000" stroke-width="1" fill="none"></path></g></g><g stroke-linecap="round" transform="translate(186.44140625 478.92578124999994) rotate(0 29.83203125 13.58203125)"><path d="M29.83 0 C35.9 -0.17, 44.11 1.31, 49.01 3.18 C53.9 5.05, 58.1 8.36, 59.21 11.22 C60.32 14.09, 58.86 17.85, 55.67 20.37 C52.47 22.89, 46.04 25.35, 40.04 26.34 C34.03 27.34, 25.64 27.34, 19.63 26.34 C13.62 25.35, 7.19 22.89, 4 20.37 C0.8 17.85, -0.66 14.09, 0.45 11.22 C1.56 8.36, 5.76 5.05, 10.66 3.18 C15.55 1.31, 26.64 0.48, 29.83 0 C33.03 -0.48, 29.83 0.05, 29.83 0.27 M29.83 0 C35.9 -0.17, 44.11 1.31, 49.01 3.18 C53.9 5.05, 58.1 8.36, 59.21 11.22 C60.32 14.09, 58.86 17.85, 55.67 20.37 C52.47 22.89, 46.04 25.35, 40.04 26.34 C34.03 27.34, 25.64 27.34, 19.63 26.34 C13.62 25.35, 7.19 22.89, 4 20.37 C0.8 17.85, -0.66 14.09, 0.45 11.22 C1.56 8.36, 5.76 5.05, 10.66 3.18 C15.55 1.31, 26.64 0.48, 29.83 0 C33.03 -0.48, 29.83 0.05, 29.83 0.27" stroke="none" stroke-width="0" fill="#868e96"></path><path d="M29.83 0 C35.9 -0.17, 44.11 1.31, 49.01 3.18 C53.9 5.05, 58.1 8.36, 59.21 11.22 C60.32 14.09, 58.86 17.85, 55.67 20.37 C52.47 22.89, 46.04 25.35, 40.04 26.34 C34.03 27.34, 25.64 27.34, 19.63 26.34 C13.62 25.35, 7.19 22.89, 4 20.37 C0.8 17.85, -0.66 14.09, 0.45 11.22 C1.56 8.36, 5.76 5.05, 10.66 3.18 C15.55 1.31, 26.64 0.48, 29.83 0 C33.03 -0.48, 29.83 0.05, 29.83 0.27 M29.83 0 C35.9 -0.17, 44.11 1.31, 49.01 3.18 C53.9 5.05, 58.1 8.36, 59.21 11.22 C60.32 14.09, 58.86 17.85, 55.67 20.37 C52.47 22.89, 46.04 25.35, 40.04 26.34 C34.03 27.34, 25.64 27.34, 19.63 26.34 C13.62 25.35, 7.19 22.89, 4 20.37 C0.8 17.85, -0.66 14.09, 0.45 11.22 C1.56 8.36, 5.76 5.05, 10.66 3.18 C15.55 1.31, 26.64 0.48, 29.83 0 C33.03 -0.48, 29.83 0.05, 29.83 0.27" stroke="#000000" stroke-width="1" fill="none"></path></g><g stroke-linecap="round" transform="translate(191.05078125 562.91015625) rotate(0 29.83203125 13.58203125)"><path d="M29.83 0 C35.9 -0.17, 44.11 1.31, 49.01 3.18 C53.9 5.05, 58.1 8.36, 59.21 11.22 C60.32 14.09, 58.86 17.85, 55.67 20.37 C52.47 22.89, 46.04 25.35, 40.04 26.34 C34.03 27.34, 25.64 27.34, 19.63 26.34 C13.62 25.35, 7.19 22.89, 4 20.37 C0.8 17.85, -0.66 14.09, 0.45 11.22 C1.56 8.36, 5.76 5.05, 10.66 3.18 C15.55 1.31, 26.64 0.48, 29.83 0 C33.03 -0.48, 29.83 0.05, 29.83 0.27 M29.83 0 C35.9 -0.17, 44.11 1.31, 49.01 3.18 C53.9 5.05, 58.1 8.36, 59.21 11.22 C60.32 14.09, 58.86 17.85, 55.67 20.37 C52.47 22.89, 46.04 25.35, 40.04 26.34 C34.03 27.34, 25.64 27.34, 19.63 26.34 C13.62 25.35, 7.19 22.89, 4 20.37 C0.8 17.85, -0.66 14.09, 0.45 11.22 C1.56 8.36, 5.76 5.05, 10.66 3.18 C15.55 1.31, 26.64 0.48, 29.83 0 C33.03 -0.48, 29.83 0.05, 29.83 0.27" stroke="none" stroke-width="0" fill="#868e96"></path><path d="M29.83 0 C35.9 -0.17, 44.11 1.31, 49.01 3.18 C53.9 5.05, 58.1 8.36, 59.21 11.22 C60.32 14.09, 58.86 17.85, 55.67 20.37 C52.47 22.89, 46.04 25.35, 40.04 26.34 C34.03 27.34, 25.64 27.34, 19.63 26.34 C13.62 25.35, 7.19 22.89, 4 20.37 C0.8 17.85, -0.66 14.09, 0.45 11.22 C1.56 8.36, 5.76 5.05, 10.66 3.18 C15.55 1.31, 26.64 0.48, 29.83 0 C33.03 -0.48, 29.83 0.05, 29.83 0.27 M29.83 0 C35.9 -0.17, 44.11 1.31, 49.01 3.18 C53.9 5.05, 58.1 8.36, 59.21 11.22 C60.32 14.09, 58.86 17.85, 55.67 20.37 C52.47 22.89, 46.04 25.35, 40.04 26.34 C34.03 27.34, 25.64 27.34, 19.63 26.34 C13.62 25.35, 7.19 22.89, 4 20.37 C0.8 17.85, -0.66 14.09, 0.45 11.22 C1.56 8.36, 5.76 5.05, 10.66 3.18 C15.55 1.31, 26.64 0.48, 29.83 0 C33.03 -0.48, 29.83 0.05, 29.83 0.27" stroke="#000000" stroke-width="1" fill="none"></path></g><g stroke-linecap="round"><g transform="translate(236.2265625 589.0625) rotate(0 31.9921875 23.1328125)"><path d="M0 0 C10.66 7.71, 53.32 38.55, 63.98 46.27 M0 0 C10.66 7.71, 53.32 38.55, 63.98 46.27" stroke="#000000" stroke-width="1" fill="none"></path></g></g><g transform="translate(79.6640625 435.44140624999994) rotate(0 76 12)"><text x="0" y="19" font-family="Cascadia, Segoe UI Emoji" font-size="20px" fill="#000000" text-anchor="start" style="white-space: pre;" direction="ltr">a task branch</text></g><g stroke-linecap="round"><g transform="translate(754.6085579755575 693.4933130108152) rotate(179.4545095910316 0.84765625 35.1796875)"><path d="M0 0 C0.28 11.73, 1.41 58.63, 1.7 70.36 M0 0 C0.28 11.73, 1.41 58.63, 1.7 70.36" stroke="#000000" stroke-width="1" fill="none"></path></g></g><g stroke-linecap="round" transform="translate(627.3627745421568 809.960450096627) rotate(179.4545095910316 29.83203125 13.58203125)"><path d="M29.83 0 C35.9 -0.17, 44.11 1.31, 49.01 3.18 C53.9 5.05, 58.1 8.36, 59.21 11.22 C60.32 14.09, 58.86 17.85, 55.67 20.37 C52.47 22.89, 46.04 25.35, 40.04 26.34 C34.03 27.34, 25.64 27.34, 19.63 26.34 C13.62 25.35, 7.19 22.89, 4 20.37 C0.8 17.85, -0.66 14.09, 0.45 11.22 C1.56 8.36, 5.76 5.05, 10.66 3.18 C15.55 1.31, 26.64 0.48, 29.83 0 C33.03 -0.48, 29.83 0.05, 29.83 0.27 M29.83 0 C35.9 -0.17, 44.11 1.31, 49.01 3.18 C53.9 5.05, 58.1 8.36, 59.21 11.22 C60.32 14.09, 58.86 17.85, 55.67 20.37 C52.47 22.89, 46.04 25.35, 40.04 26.34 C34.03 27.34, 25.64 27.34, 19.63 26.34 C13.62 25.35, 7.19 22.89, 4 20.37 C0.8 17.85, -0.66 14.09, 0.45 11.22 C1.56 8.36, 5.76 5.05, 10.66 3.18 C15.55 1.31, 26.64 0.48, 29.83 0 C33.03 -0.48, 29.83 0.05, 29.83 0.27" stroke="none" stroke-width="0" fill="#868e96"></path><path d="M29.83 0 C35.9 -0.17, 44.11 1.31, 49.01 3.18 C53.9 5.05, 58.1 8.36, 59.21 11.22 C60.32 14.09, 58.86 17.85, 55.67 20.37 C52.47 22.89, 46.04 25.35, 40.04 26.34 C34.03 27.34, 25.64 27.34, 19.63 26.34 C13.62 25.35, 7.19 22.89, 4 20.37 C0.8 17.85, -0.66 14.09, 0.45 11.22 C1.56 8.36, 5.76 5.05, 10.66 3.18 C15.55 1.31, 26.64 0.48, 29.83 0 C33.03 -0.48, 29.83 0.05, 29.83 0.27 M29.83 0 C35.9 -0.17, 44.11 1.31, 49.01 3.18 C53.9 5.05, 58.1 8.36, 59.21 11.22 C60.32 14.09, 58.86 17.85, 55.67 20.37 C52.47 22.89, 46.04 25.35, 40.04 26.34 C34.03 27.34, 25.64 27.34, 19.63 26.34 C13.62 25.35, 7.19 22.89, 4 20.37 C0.8 17.85, -0.66 14.09, 0.45 11.22 C1.56 8.36, 5.76 5.05, 10.66 3.18 C15.55 1.31, 26.64 0.48, 29.83 0 C33.03 -0.48, 29.83 0.05, 29.83 0.27" stroke="#000000" stroke-width="1" fill="none"></path></g><g stroke-linecap="round" transform="translate(625.8005479540061 613.0523367173373) rotate(179.4545095910316 29.83203125 13.58203125)"><path d="M29.83 0 C35.9 -0.17, 44.11 1.31, 49.01 3.18 C53.9 5.05, 58.1 8.36, 59.21 11.22 C60.32 14.09, 58.86 17.85, 55.67 20.37 C52.47 22.89, 46.04 25.35, 40.04 26.34 C34.03 27.34, 25.64 27.34, 19.63 26.34 C13.62 25.35, 7.19 22.89, 4 20.37 C0.8 17.85, -0.66 14.09, 0.45 11.22 C1.56 8.36, 5.76 5.05, 10.66 3.18 C15.55 1.31, 26.64 0.48, 29.83 0 C33.03 -0.48, 29.83 0.05, 29.83 0.27 M29.83 0 C35.9 -0.17, 44.11 1.31, 49.01 3.18 C53.9 5.05, 58.1 8.36, 59.21 11.22 C60.32 14.09, 58.86 17.85, 55.67 20.37 C52.47 22.89, 46.04 25.35, 40.04 26.34 C34.03 27.34, 25.64 27.34, 19.63 26.34 C13.62 25.35, 7.19 22.89, 4 20.37 C0.8 17.85, -0.66 14.09, 0.45 11.22 C1.56 8.36, 5.76 5.05, 10.66 3.18 C15.55 1.31, 26.64 0.48, 29.83 0 C33.03 -0.48, 29.83 0.05, 29.83 0.27" stroke="none" stroke-width="0" fill="#868e96"></path><path d="M29.83 0 C35.9 -0.17, 44.11 1.31, 49.01 3.18 C53.9 5.05, 58.1 8.36, 59.21 11.22 C60.32 14.09, 58.86 17.85, 55.67 20.37 C52.47 22.89, 46.04 25.35, 40.04 26.34 C34.03 27.34, 25.64 27.34, 19.63 26.34 C13.62 25.35, 7.19 22.89, 4 20.37 C0.8 17.85, -0.66 14.09, 0.45 11.22 C1.56 8.36, 5.76 5.05, 10.66 3.18 C15.55 1.31, 26.64 0.48, 29.83 0 C33.03 -0.48, 29.83 0.05, 29.83 0.27 M29.83 0 C35.9 -0.17, 44.11 1.31, 49.01 3.18 C53.9 5.05, 58.1 8.36, 59.21 11.22 C60.32 14.09, 58.86 17.85, 55.67 20.37 C52.47 22.89, 46.04 25.35, 40.04 26.34 C34.03 27.34, 25.64 27.34, 19.63 26.34 C13.62 25.35, 7.19 22.89, 4 20.37 C0.8 17.85, -0.66 14.09, 0.45 11.22 C1.56 8.36, 5.76 5.05, 10.66 3.18 C15.55 1.31, 26.64 0.48, 29.83 0 C33.03 -0.48, 29.83 0.05, 29.83 0.27" stroke="#000000" stroke-width="1" fill="none"></path></g><g stroke-linecap="round"><g transform="translate(751.9128182414397 772.5561430691896) rotate(179.4545095910316 -33.92578125 21.8984375)"><path d="M0 0 C-11.31 7.3, -56.54 36.5, -67.85 43.8 M0 0 C-11.31 7.3, -56.54 36.5, -67.85 43.8" stroke="#000000" stroke-width="1" fill="none"></path></g></g><g stroke-linecap="round" transform="translate(715.701171875 672.771484375) rotate(0 29.83203125 13.58203125)"><path d="M29.83 0 C35.9 -0.17, 44.11 1.31, 49.01 3.18 C53.9 5.05, 58.1 8.36, 59.21 11.22 C60.32 14.09, 58.86 17.85, 55.67 20.37 C52.47 22.89, 46.04 25.35, 40.04 26.34 C34.03 27.34, 25.64 27.34, 19.63 26.34 C13.62 25.35, 7.19 22.89, 4 20.37 C0.8 17.85, -0.66 14.09, 0.45 11.22 C1.56 8.36, 5.76 5.05, 10.66 3.18 C15.55 1.31, 26.64 0.48, 29.83 0 C33.03 -0.48, 29.83 0.05, 29.83 0.27 M29.83 0 C35.9 -0.17, 44.11 1.31, 49.01 3.18 C53.9 5.05, 58.1 8.36, 59.21 11.22 C60.32 14.09, 58.86 17.85, 55.67 20.37 C52.47 22.89, 46.04 25.35, 40.04 26.34 C34.03 27.34, 25.64 27.34, 19.63 26.34 C13.62 25.35, 7.19 22.89, 4 20.37 C0.8 17.85, -0.66 14.09, 0.45 11.22 C1.56 8.36, 5.76 5.05, 10.66 3.18 C15.55 1.31, 26.64 0.48, 29.83 0 C33.03 -0.48, 29.83 0.05, 29.83 0.27" stroke="none" stroke-width="0" fill="#868e96"></path><path d="M29.83 0 C35.9 -0.17, 44.11 1.31, 49.01 3.18 C53.9 5.05, 58.1 8.36, 59.21 11.22 C60.32 14.09, 58.86 17.85, 55.67 20.37 C52.47 22.89, 46.04 25.35, 40.04 26.34 C34.03 27.34, 25.64 27.34, 19.63 26.34 C13.62 25.35, 7.19 22.89, 4 20.37 C0.8 17.85, -0.66 14.09, 0.45 11.22 C1.56 8.36, 5.76 5.05, 10.66 3.18 C15.55 1.31, 26.64 0.48, 29.83 0 C33.03 -0.48, 29.83 0.05, 29.83 0.27 M29.83 0 C35.9 -0.17, 44.11 1.31, 49.01 3.18 C53.9 5.05, 58.1 8.36, 59.21 11.22 C60.32 14.09, 58.86 17.85, 55.67 20.37 C52.47 22.89, 46.04 25.35, 40.04 26.34 C34.03 27.34, 25.64 27.34, 19.63 26.34 C13.62 25.35, 7.19 22.89, 4 20.37 C0.8 17.85, -0.66 14.09, 0.45 11.22 C1.56 8.36, 5.76 5.05, 10.66 3.18 C15.55 1.31, 26.64 0.48, 29.83 0 C33.03 -0.48, 29.83 0.05, 29.83 0.27" stroke="#000000" stroke-width="1" fill="none"></path></g><g stroke-linecap="round" transform="translate(720.310546875 756.755859375) rotate(0 29.83203125 13.58203125)"><path d="M29.83 0 C35.9 -0.17, 44.11 1.31, 49.01 3.18 C53.9 5.05, 58.1 8.36, 59.21 11.22 C60.32 14.09, 58.86 17.85, 55.67 20.37 C52.47 22.89, 46.04 25.35, 40.04 26.34 C34.03 27.34, 25.64 27.34, 19.63 26.34 C13.62 25.35, 7.19 22.89, 4 20.37 C0.8 17.85, -0.66 14.09, 0.45 11.22 C1.56 8.36, 5.76 5.05, 10.66 3.18 C15.55 1.31, 26.64 0.48, 29.83 0 C33.03 -0.48, 29.83 0.05, 29.83 0.27 M29.83 0 C35.9 -0.17, 44.11 1.31, 49.01 3.18 C53.9 5.05, 58.1 8.36, 59.21 11.22 C60.32 14.09, 58.86 17.85, 55.67 20.37 C52.47 22.89, 46.04 25.35, 40.04 26.34 C34.03 27.34, 25.64 27.34, 19.63 26.34 C13.62 25.35, 7.19 22.89, 4 20.37 C0.8 17.85, -0.66 14.09, 0.45 11.22 C1.56 8.36, 5.76 5.05, 10.66 3.18 C15.55 1.31, 26.64 0.48, 29.83 0 C33.03 -0.48, 29.83 0.05, 29.83 0.27" stroke="none" stroke-width="0" fill="#868e96"></path><path d="M29.83 0 C35.9 -0.17, 44.11 1.31, 49.01 3.18 C53.9 5.05, 58.1 8.36, 59.21 11.22 C60.32 14.09, 58.86 17.85, 55.67 20.37 C52.47 22.89, 46.04 25.35, 40.04 26.34 C34.03 27.34, 25.64 27.34, 19.63 26.34 C13.62 25.35, 7.19 22.89, 4 20.37 C0.8 17.85, -0.66 14.09, 0.45 11.22 C1.56 8.36, 5.76 5.05, 10.66 3.18 C15.55 1.31, 26.64 0.48, 29.83 0 C33.03 -0.48, 29.83 0.05, 29.83 0.27 M29.83 0 C35.9 -0.17, 44.11 1.31, 49.01 3.18 C53.9 5.05, 58.1 8.36, 59.21 11.22 C60.32 14.09, 58.86 17.85, 55.67 20.37 C52.47 22.89, 46.04 25.35, 40.04 26.34 C34.03 27.34, 25.64 27.34, 19.63 26.34 C13.62 25.35, 7.19 22.89, 4 20.37 C0.8 17.85, -0.66 14.09, 0.45 11.22 C1.56 8.36, 5.76 5.05, 10.66 3.18 C15.55 1.31, 26.64 0.48, 29.83 0 C33.03 -0.48, 29.83 0.05, 29.83 0.27" stroke="#000000" stroke-width="1" fill="none"></path></g><g stroke-linecap="round"><g transform="translate(677.9327978882486 628.212349202347) rotate(179.4545095910316 31.9921875 23.1328125)"><path d="M0 0 C10.66 7.71, 53.32 38.55, 63.98 46.27 M0 0 C10.66 7.71, 53.32 38.55, 63.98 46.27" stroke="#000000" stroke-width="1" fill="none"></path></g></g><g transform="translate(191.0703125 1018.3828125) rotate(0 111.5 24)"><text x="0" y="19" font-family="Cascadia, Segoe UI Emoji" font-size="20px" fill="#000000" text-anchor="start" style="white-space: pre;" direction="ltr">merge user story </text><text x="0" y="43" font-family="Cascadia, Segoe UI Emoji" font-size="20px" fill="#000000" text-anchor="start" style="white-space: pre;" direction="ltr">when it is finished</text></g><g stroke-linecap="round"><g transform="translate(334.0884328561775 1007.4609375) rotate(0 28.88156482191124 -34.80078125)"><path d="M0 0 C9.63 -11.6, 48.14 -58, 57.76 -69.6 M0 0 C9.63 -11.6, 48.14 -58, 57.76 -69.6" stroke="#000000" stroke-width="1" fill="none"></path></g><g transform="translate(334.0884328561775 1007.4609375) rotate(0 28.88156482191124 -34.80078125)"><path d="M47.66 -41.36 C51.63 -52.46, 55.6 -63.56, 57.76 -69.6 M47.66 -41.36 C51.31 -51.56, 54.96 -61.76, 57.76 -69.6" stroke="#000000" stroke-width="1" fill="none"></path></g><g transform="translate(334.0884328561775 1007.4609375) rotate(0 28.88156482191124 -34.80078125)"><path d="M31.86 -54.46 C42.04 -60.41, 52.22 -66.36, 57.76 -69.6 M31.86 -54.46 C41.22 -59.93, 50.58 -65.4, 57.76 -69.6" stroke="#000000" stroke-width="1" fill="none"></path></g></g><g stroke-linecap="round"><g transform="translate(421.4765625 1062.6356254534307) rotate(0 68.75390625 11.814999773284626)"><path d="M0 0 C22.92 3.94, 114.59 19.69, 137.51 23.63 M0 0 C22.92 3.94, 114.59 19.69, 137.51 23.63" stroke="#000000" stroke-width="1" fill="none"></path></g><g transform="translate(421.4765625 1062.6356254534307) rotate(0 68.75390625 11.814999773284626)"><path d="M107.99 28.97 C119.47 26.89, 130.96 24.81, 137.51 23.63 M107.99 28.97 C115.56 27.6, 123.14 26.23, 137.51 23.63" stroke="#000000" stroke-width="1" fill="none"></path></g><g transform="translate(421.4765625 1062.6356254534307) rotate(0 68.75390625 11.814999773284626)"><path d="M111.46 8.74 C121.6 14.54, 131.73 20.33, 137.51 23.63 M111.46 8.74 C118.15 12.56, 124.83 16.38, 137.51 23.63" stroke="#000000" stroke-width="1" fill="none"></path></g></g><g transform="translate(10 723.859375) rotate(0 94 24)"><text x="0" y="19" font-family="Cascadia, Segoe UI Emoji" font-size="20px" fill="#000000" text-anchor="start" style="white-space: pre;" direction="ltr">merge task when </text><text x="0" y="43" font-family="Cascadia, Segoe UI Emoji" font-size="20px" fill="#000000" text-anchor="start" style="white-space: pre;" direction="ltr">it is finished</text></g><g stroke-linecap="round"><g transform="translate(152.0703125 705.90625) rotate(0 48.83203125 -38.83203125)"><path d="M0 0 C16.28 -12.94, 81.39 -64.72, 97.66 -77.66 M0 0 C16.28 -12.94, 81.39 -64.72, 97.66 -77.66" stroke="#000000" stroke-width="1" fill="none"></path></g><g transform="translate(152.0703125 705.90625) rotate(0 48.83203125 -38.83203125)"><path d="M81.99 -52.09 C85.92 -58.51, 89.86 -64.93, 97.66 -77.66 M81.99 -52.09 C86.79 -59.93, 91.6 -67.77, 97.66 -77.66" stroke="#000000" stroke-width="1" fill="none"></path></g><g transform="translate(152.0703125 705.90625) rotate(0 48.83203125 -38.83203125)"><path d="M69.21 -68.15 C76.36 -70.54, 83.5 -72.93, 97.66 -77.66 M69.21 -68.15 C77.94 -71.07, 86.66 -73.98, 97.66 -77.66" stroke="#000000" stroke-width="1" fill="none"></path></g></g><g transform="translate(714.1015625 588.5078125) rotate(0 76 12)"><text x="0" y="19" font-family="Cascadia, Segoe UI Emoji" font-size="20px" fill="#000000" text-anchor="start" style="white-space: pre;" direction="ltr">a task branch</text></g><g stroke-linecap="round" transform="translate(472.7890625 696.4298095703125) rotate(0 29.83203125 13.58203125)"><path d="M29.83 0 C35.9 -0.17, 44.11 1.31, 49.01 3.18 C53.9 5.05, 58.1 8.36, 59.21 11.22 C60.32 14.09, 58.86 17.85, 55.67 20.37 C52.47 22.89, 46.04 25.35, 40.04 26.34 C34.03 27.34, 25.64 27.34, 19.63 26.34 C13.62 25.35, 7.19 22.89, 4 20.37 C0.8 17.85, -0.66 14.09, 0.45 11.22 C1.56 8.36, 5.76 5.05, 10.66 3.18 C15.55 1.31, 26.64 0.48, 29.83 0 C33.03 -0.48, 29.83 0.05, 29.83 0.27 M29.83 0 C35.9 -0.17, 44.11 1.31, 49.01 3.18 C53.9 5.05, 58.1 8.36, 59.21 11.22 C60.32 14.09, 58.86 17.85, 55.67 20.37 C52.47 22.89, 46.04 25.35, 40.04 26.34 C34.03 27.34, 25.64 27.34, 19.63 26.34 C13.62 25.35, 7.19 22.89, 4 20.37 C0.8 17.85, -0.66 14.09, 0.45 11.22 C1.56 8.36, 5.76 5.05, 10.66 3.18 C15.55 1.31, 26.64 0.48, 29.83 0 C33.03 -0.48, 29.83 0.05, 29.83 0.27" stroke="none" stroke-width="0" fill="#868e96"></path><path d="M29.83 0 C35.9 -0.17, 44.11 1.31, 49.01 3.18 C53.9 5.05, 58.1 8.36, 59.21 11.22 C60.32 14.09, 58.86 17.85, 55.67 20.37 C52.47 22.89, 46.04 25.35, 40.04 26.34 C34.03 27.34, 25.64 27.34, 19.63 26.34 C13.62 25.35, 7.19 22.89, 4 20.37 C0.8 17.85, -0.66 14.09, 0.45 11.22 C1.56 8.36, 5.76 5.05, 10.66 3.18 C15.55 1.31, 26.64 0.48, 29.83 0 C33.03 -0.48, 29.83 0.05, 29.83 0.27 M29.83 0 C35.9 -0.17, 44.11 1.31, 49.01 3.18 C53.9 5.05, 58.1 8.36, 59.21 11.22 C60.32 14.09, 58.86 17.85, 55.67 20.37 C52.47 22.89, 46.04 25.35, 40.04 26.34 C34.03 27.34, 25.64 27.34, 19.63 26.34 C13.62 25.35, 7.19 22.89, 4 20.37 C0.8 17.85, -0.66 14.09, 0.45 11.22 C1.56 8.36, 5.76 5.05, 10.66 3.18 C15.55 1.31, 26.64 0.48, 29.83 0 C33.03 -0.48, 29.83 0.05, 29.83 0.27" stroke="#000000" stroke-width="1" fill="none"></path></g><g stroke-linecap="round" transform="translate(469.87109375 807.9298095703125) rotate(0 29.83203125 13.58203125)"><path d="M29.83 0 C35.9 -0.17, 44.11 1.31, 49.01 3.18 C53.9 5.05, 58.1 8.36, 59.21 11.22 C60.32 14.09, 58.86 17.85, 55.67 20.37 C52.47 22.89, 46.04 25.35, 40.04 26.34 C34.03 27.34, 25.64 27.34, 19.63 26.34 C13.62 25.35, 7.19 22.89, 4 20.37 C0.8 17.85, -0.66 14.09, 0.45 11.22 C1.56 8.36, 5.76 5.05, 10.66 3.18 C15.55 1.31, 26.64 0.48, 29.83 0 C33.03 -0.48, 29.83 0.05, 29.83 0.27 M29.83 0 C35.9 -0.17, 44.11 1.31, 49.01 3.18 C53.9 5.05, 58.1 8.36, 59.21 11.22 C60.32 14.09, 58.86 17.85, 55.67 20.37 C52.47 22.89, 46.04 25.35, 40.04 26.34 C34.03 27.34, 25.64 27.34, 19.63 26.34 C13.62 25.35, 7.19 22.89, 4 20.37 C0.8 17.85, -0.66 14.09, 0.45 11.22 C1.56 8.36, 5.76 5.05, 10.66 3.18 C15.55 1.31, 26.64 0.48, 29.83 0 C33.03 -0.48, 29.83 0.05, 29.83 0.27" stroke="none" stroke-width="0" fill="#868e96"></path><path d="M29.83 0 C35.9 -0.17, 44.11 1.31, 49.01 3.18 C53.9 5.05, 58.1 8.36, 59.21 11.22 C60.32 14.09, 58.86 17.85, 55.67 20.37 C52.47 22.89, 46.04 25.35, 40.04 26.34 C34.03 27.34, 25.64 27.34, 19.63 26.34 C13.62 25.35, 7.19 22.89, 4 20.37 C0.8 17.85, -0.66 14.09, 0.45 11.22 C1.56 8.36, 5.76 5.05, 10.66 3.18 C15.55 1.31, 26.64 0.48, 29.83 0 C33.03 -0.48, 29.83 0.05, 29.83 0.27 M29.83 0 C35.9 -0.17, 44.11 1.31, 49.01 3.18 C53.9 5.05, 58.1 8.36, 59.21 11.22 C60.32 14.09, 58.86 17.85, 55.67 20.37 C52.47 22.89, 46.04 25.35, 40.04 26.34 C34.03 27.34, 25.64 27.34, 19.63 26.34 C13.62 25.35, 7.19 22.89, 4 20.37 C0.8 17.85, -0.66 14.09, 0.45 11.22 C1.56 8.36, 5.76 5.05, 10.66 3.18 C15.55 1.31, 26.64 0.48, 29.83 0 C33.03 -0.48, 29.83 0.05, 29.83 0.27" stroke="#000000" stroke-width="1" fill="none"></path></g><g stroke-linecap="round"><g transform="translate(475.48046875 716.6212158203125) rotate(0 -33.92578125 21.8984375)"><path d="M0 0 C-11.31 7.3, -56.54 36.5, -67.85 43.8 M0 0 C-11.31 7.3, -56.54 36.5, -67.85 43.8" stroke="#000000" stroke-width="1" fill="none"></path></g></g><g stroke-linecap="round" transform="translate(366.4765625 748.4298095703125) rotate(0 29.83203125 13.58203125)"><path d="M29.83 0 C35.9 -0.17, 44.11 1.31, 49.01 3.18 C53.9 5.05, 58.1 8.36, 59.21 11.22 C60.32 14.09, 58.86 17.85, 55.67 20.37 C52.47 22.89, 46.04 25.35, 40.04 26.34 C34.03 27.34, 25.64 27.34, 19.63 26.34 C13.62 25.35, 7.19 22.89, 4 20.37 C0.8 17.85, -0.66 14.09, 0.45 11.22 C1.56 8.36, 5.76 5.05, 10.66 3.18 C15.55 1.31, 26.64 0.48, 29.83 0 C33.03 -0.48, 29.83 0.05, 29.83 0.27 M29.83 0 C35.9 -0.17, 44.11 1.31, 49.01 3.18 C53.9 5.05, 58.1 8.36, 59.21 11.22 C60.32 14.09, 58.86 17.85, 55.67 20.37 C52.47 22.89, 46.04 25.35, 40.04 26.34 C34.03 27.34, 25.64 27.34, 19.63 26.34 C13.62 25.35, 7.19 22.89, 4 20.37 C0.8 17.85, -0.66 14.09, 0.45 11.22 C1.56 8.36, 5.76 5.05, 10.66 3.18 C15.55 1.31, 26.64 0.48, 29.83 0 C33.03 -0.48, 29.83 0.05, 29.83 0.27" stroke="none" stroke-width="0" fill="#868e96"></path><path d="M29.83 0 C35.9 -0.17, 44.11 1.31, 49.01 3.18 C53.9 5.05, 58.1 8.36, 59.21 11.22 C60.32 14.09, 58.86 17.85, 55.67 20.37 C52.47 22.89, 46.04 25.35, 40.04 26.34 C34.03 27.34, 25.64 27.34, 19.63 26.34 C13.62 25.35, 7.19 22.89, 4 20.37 C0.8 17.85, -0.66 14.09, 0.45 11.22 C1.56 8.36, 5.76 5.05, 10.66 3.18 C15.55 1.31, 26.64 0.48, 29.83 0 C33.03 -0.48, 29.83 0.05, 29.83 0.27 M29.83 0 C35.9 -0.17, 44.11 1.31, 49.01 3.18 C53.9 5.05, 58.1 8.36, 59.21 11.22 C60.32 14.09, 58.86 17.85, 55.67 20.37 C52.47 22.89, 46.04 25.35, 40.04 26.34 C34.03 27.34, 25.64 27.34, 19.63 26.34 C13.62 25.35, 7.19 22.89, 4 20.37 C0.8 17.85, -0.66 14.09, 0.45 11.22 C1.56 8.36, 5.76 5.05, 10.66 3.18 C15.55 1.31, 26.64 0.48, 29.83 0 C33.03 -0.48, 29.83 0.05, 29.83 0.27" stroke="#000000" stroke-width="1" fill="none"></path></g><g stroke-linecap="round"><g transform="translate(413.65625 773.1524658203125) rotate(0 31.9921875 23.1328125)"><path d="M0 0 C10.66 7.71, 53.32 38.55, 63.98 46.27 M0 0 C10.66 7.71, 53.32 38.55, 63.98 46.27" stroke="#000000" stroke-width="1" fill="none"></path></g></g><g transform="translate(383.39453125 681.51171875) rotate(0 33.5 25)"><text x="0" y="18" font-family="Virgil, Segoe UI Emoji" font-size="20px" fill="#000000" text-anchor="start" style="white-space: pre;" direction="ltr">oops!</text><text x="0" y="43" font-family="Virgil, Segoe UI Emoji" font-size="20px" fill="#000000" text-anchor="start" style="white-space: pre;" direction="ltr">bug fix</text></g></svg>